# xmcd
#
# Track frame offsets:
# 150
# 17897
# 31345
# 47865
# 63347
# 81748
# 97739
# 116885
# 135084
# 153687
# 170137
#
# Disc length: 2472 seconds
#
# Revision: 0
# Processed by: cddbd v1.5.2PL0 Copyright (c) Steve Scherf et al.
# Submitted via: Axialis_AX_CDPlayer 2.6
#
DISCID=9309a60b
DTITLE=Taylor Swift - Taylor Swift
DYEAR=1900
DGENRE=
TTITLE0=Tim McGraw
TTITLE1=Picture To Burn
TTITLE2=Teardrops On My Guitar
TTITLE3=A Place In This World
TTITLE4=Cold As You
TTITLE5=The Outside
TTITLE6=Tied Together With A Smile
TTITLE7=Stay Beautiful
TTITLE8=Should've Said No
TTITLE9=Mary's Song (Oh My My My)
TTITLE10=Our Song
EXTD=www.taylorswift.com and www.myspace.com/taylorswift
EXTT0=
EXTT1=
EXTT2=
EXTT3=
EXTT4=
EXTT5=
EXTT6=
EXTT7=
EXTT8=
EXTT9=
EXTT10=
PLAYORDER=
